<?xml version="1.0" encoding="UTF-8"?>
<svg id="Layer_2" data-name="Layer 2" xmlns="http://www.w3.org/2000/svg" viewBox="0 0 167.35 307.84">
  <defs>
    <style>
      .cls-1 {
        fill: #888;
      }
    </style>
  </defs>
  <g id="Layer_1-2" data-name="Layer 1">
    <path class="cls-1" d="M47.28,110.49c0-32.5-4.16-67.53,21.74-91.88C94.46-5.33,128.92.98,160.93.22c4.05.47,5.3,2.53,5.64,6.36,1.04,11.35,1.04,34.47,0,45.82-.52,5.72-3.46,6.61-8.67,7.08-10.07.91-21.45-.88-31.51-.01-6.1.52-11.49,2.85-13.49,9.01-.18.56-1.1,4.64-1.1,4.89v36.38h47.62c3.71,0,5.37,4.77,5.65,7.85,1.05,11.39,1.23,37.58-.03,48.78-.3,2.64-1.74,6.38-4.87,6.38h-48.38v129.38c0,.2-1.65,3.16-2.01,3.43-1.44,1.04-4.75,1.35-6.58,1.48-12.28.87-36.89,1.31-48.78-.03-2.31-.26-7.13-2.35-7.13-4.87v-128.62H7.91c-.65,0-4.65-1.58-5.24-2.26-1.18-1.36-1.76-5.22-1.91-7.09-.96-11.29-1.08-33.85.04-45.02.3-3.06,1.79-8.63,5.62-8.63h40.88Z"/>
  </g>
</svg>