<?xml version="1.0" encoding="UTF-8"?>
<svg id="Layer_2" data-name="Layer 2" xmlns="http://www.w3.org/2000/svg" viewBox="0 0 1375 1092">
  <defs>
    <style>
      .cls-1 {
        fill: #888;
      }
    </style>
  </defs>
  <g id="Layer_1-2" data-name="Layer 1">
    <path class="cls-1" d="M416,0l307.51,675.01L995,0h380v23.5c-28.7,27.3-57.05,54.94-85.47,82.53-11.86,11.51-35.02,27.53-36.57,44.43l.13,793.95,6.39,13.61,113.52,111.48v22.5h-540v-22.5l115.02-111.98c1.85-2.08,6.98-9.73,6.98-12.02V308l-307.78,779.72-2.72,2.28c-11.66-1.07-25.72,1.42-37.06.06-1.1-.13-2.19-.02-2.96-1.04L247.24,309.28l-2.24-1.28v544.5c0,7.34,9.07,25.1,13.59,31.41l150.41,181.59v24.5H0v-23.5l150.82-183.18c13.11-19.01,12.17-28.9,12.14-50.77-.35-206.97.46-413.95-.07-620.93-1.72-17.15-9.09-23.16-18.85-35.15C102.17,125.08,59.45,74.39,17,23.5V0h399Z"/>
  </g>
</svg>