<?xml version="1.0" encoding="UTF-8"?>
<svg id="Layer_2" data-name="Layer 2" xmlns="http://www.w3.org/2000/svg" viewBox="0 0 384 384">
  <defs>
    <style>
      .cls-1 {
        fill: #888;
      }
    </style>
  </defs>
  <g id="Layer_1-2" data-name="Layer 1">
    <g>
      <path class="cls-1" d="M240.95,0c.78,1.24,2.84.75,4.11.76,40.77.43,81.36,2.18,110.5,34.84,26.56,29.77,27.21,67.32,27.68,105.03.02,1.27-.48,3.33.76,4.11v96c-1.24.78-.75,2.85-.76,4.11-.45,42.9-2.63,82.57-37.43,112.52-28.49,24.52-65.02,25.41-100.75,25.85-1.27.02-3.33-.48-4.11.76h-114.59l-33.11-3.22c-53.46-8.75-83.58-43.12-90.36-96.26l-2.35-28.77c1.27-42.95-1.7-86.91,0-129.75C2.02,88.75,8.67,52.96,37.98,27.36,68.01,1.13,107.47.81,145.09,0h95.86ZM184.62,33.97c-26.11.05-57.7-1.11-83.25,2.12-55.45,7.01-65.34,44.42-67.16,94,3.35,49.4-5.41,105.86,2.48,154.32,10.58,64.97,60.13,63.07,113.29,64.3,37.35.86,77.32,2.32,114.55.02,70.26-4.34,81.82-33.9,84.23-98.65,1.4-37.56,1.15-75.63,0-113.19-1.04-33.9-.11-71.62-34.41-90.05-30.83-16.56-94.21-12.96-129.74-12.89Z"/>
      <path class="cls-1" d="M180.88,93.97c97.7-8.92,148.64,109.81,75.4,173.01-48.48,41.83-124.6,25.48-152.52-31.72-29.23-59.88,10.48-135.2,77.12-141.29ZM183.88,128.47c-40.15,4.1-65.32,48.14-51.54,85.67,16.64,45.32,77.35,56.51,108.59,19.46,37.96-45.02,1.69-111.13-57.05-105.13Z"/>
      <path class="cls-1" d="M290.2,66.95c32.98-4.82,36.48,42.26,7.22,45.47-30.36,3.33-34.68-41.46-7.22-45.47Z"/>
    </g>
  </g>
</svg>