<?xml version="1.0" encoding="UTF-8"?>
<svg id="Layer_1" xmlns="http://www.w3.org/2000/svg" xmlns:xlink="http://www.w3.org/1999/xlink" version="1.1" viewBox="0 0 1122.88 203.58">
  <!-- Generator: Adobe Illustrator 29.5.0, SVG Export Plug-In . SVG Version: 2.1.0 Build 137)  -->
  <defs>
    <linearGradient id="linear-gradient" x1="621.33" y1="65.79" x2="464.58" y2="16.37" gradientTransform="translate(19.63 -55.84) rotate(12.5)" gradientUnits="userSpaceOnUse">
      <stop offset="0" stop-color="#187dfe"/>
      <stop offset=".16" stop-color="#1982fd"/>
      <stop offset=".37" stop-color="#1e93fd"/>
      <stop offset=".6" stop-color="#26aefc"/>
      <stop offset=".86" stop-color="#31d3fb"/>
      <stop offset="1" stop-color="#39ecfb"/>
    </linearGradient>
  </defs>
  <g>
    <path d="M42.82,138.66c-9.56,0-17.29-1.03-23.15-3.08-5.86-2.06-10.31-4.88-13.37-8.49-3.06-3.59-5.12-7.75-6.17-12.46h31.54c2.32,3.37,6.05,5.05,11.14,5.05s8.8-1.67,11.14-5.05c.19-.31.29-.62.29-.88,0-.88-1.17-1.55-3.51-1.98-2.34-.45-5.86-.79-10.54-1.03-5.88-.26-12.05-.88-18.53-1.87C7.22,106.62,0,100.83,0,91.46c0-.79.05-1.63.14-2.53,1.05-4.69,3.11-8.85,6.17-12.43,3.06-3.61,7.51-6.43,13.37-8.49,5.86-2.06,13.58-3.08,23.15-3.08s17.26,1.03,23.12,3.08c5.86,2.06,10.31,4.88,13.37,8.49,3.06,3.59,5.12,7.75,6.17,12.43h-31.51c-2.34-3.35-6.05-5.02-11.14-5.02s-8.82,1.67-11.14,5.02c-.17.26-.26.53-.26.74,0,.79,1.12,1.39,3.4,1.77,2.25.36,5.57.69,9.95.96,4.4.26,9.06.69,14.04,1.27,4.97.6,9.61,1.63,13.94,3.08,4.33,1.48,7.7,3.63,10.14,6.5,1.91,2.2,2.87,5,2.87,8.37,0,.96-.1,1.96-.26,3.01-1.05,4.71-3.11,8.87-6.17,12.46-3.06,3.61-7.51,6.43-13.37,8.49-5.86,2.06-13.56,3.08-23.12,3.08Z" fill="#f0f0f0"/>
    <path d="M143.2,138.66c-17.48,0-30.37-3.61-38.62-10.81-7.29-6.38-10.95-15.06-10.95-26.09s3.66-19.68,10.95-26.04c8.25-7.22,21.14-10.81,38.62-10.81s30.37,3.59,38.64,10.81c7.29,6.36,10.95,15.04,10.95,26.04s-3.66,19.7-10.95,26.09c-8.27,7.2-21.14,10.81-38.64,10.81ZM143.2,119.67c7.17,0,12.43-2.06,15.81-6.17,2.68-3.32,4.04-7.25,4.04-11.74s-1.36-8.42-4.04-11.69c-3.37-4.14-8.63-6.22-15.81-6.22s-12.43,2.08-15.83,6.22c-2.7,3.28-4.04,7.17-4.04,11.69s1.34,8.42,4.04,11.74c3.4,4.11,8.68,6.17,15.83,6.17Z" fill="#f0f0f0"/>
    <path d="M309.63,137.13h-35.32l-40-47.89v47.89h-29.7v-70.78h35.32l40,47.63v-47.63h29.7v70.78Z" fill="#f0f0f0"/>
    <path d="M371.05,138.66c-17.48,0-30.37-3.61-38.62-10.81-7.29-6.38-10.95-15.06-10.95-26.04s3.66-19.73,10.95-26.09c8.25-7.22,21.14-10.81,38.62-10.81,9.97,0,18.27,1.12,24.87,3.35,6.62,2.25,11.81,5.28,15.57,9.16,3.78,3.85,6.34,8.3,7.72,13.34h-31.78c-3.32-4.57-8.78-6.86-16.38-6.86-7.15,0-12.43,2.06-15.83,6.17-2.7,3.32-4.04,7.22-4.04,11.74s1.34,8.39,4.04,11.69c3.4,4.11,8.68,6.17,15.83,6.17,5.79,0,10.14-.5,13.06-1.51,2.92-1,5.05-2.32,6.38-3.92h-11.6v-12.43h40.31v35.36h-12.34l-2.51-6.86c-7.87,5.57-18.96,8.35-33.31,8.35Z" fill="#f0f0f0"/>
  </g>
  <g>
    <path d="M709.58,137.18h-50.76v-70.73h51.84c9.21,0,16.79.41,22.74,1.24,5.95.84,10.54,2.15,13.77,3.95,3.23,1.79,5.4,4.06,6.55,6.84,1.15,2.77,1.75,6.07,1.75,9.92-.12,3.01-.93,5.52-2.51,7.51-1.55,2.01-3.37,3.47-5.48,4.45-2.08.98-3.92,1.46-5.5,1.46,1.55,0,3.37.31,5.43.91,2.08.6,4.09,1.48,6.05,2.63,1.96,1.17,3.59,2.56,4.88,4.21,1.32,1.63,1.96,3.51,1.96,5.62,0,2.75-.33,5.28-.96,7.6-.65,2.3-1.94,4.33-3.85,6.1-1.94,1.79-4.76,3.3-8.51,4.52-3.75,1.24-8.66,2.18-14.73,2.82-6.07.65-13.63.96-22.67.96ZM707.91,95.74c4.33,0,7.7-.22,10.09-.65,2.37-.43,4.02-1.08,4.95-1.94.93-.88,1.39-1.98,1.39-3.35s-.45-2.49-1.39-3.37c-.93-.86-2.58-1.51-4.95-1.91-2.39-.41-5.76-.62-10.09-.62h-19.39v11.84h19.39ZM707.91,119.72c4.42,0,8.03-.12,10.81-.36,2.75-.22,4.78-.74,6.05-1.58,1.29-.81,1.94-2.15,1.94-3.99s-.65-3.18-1.94-4.02c-1.27-.84-3.3-1.36-6.05-1.58-2.77-.22-6.38-.31-10.81-.31h-19.39v11.84h19.39Z" fill="#f0f0f0"/>
    <path d="M877.2,137.18h-30.1l-6.65-11.6h-44.64l-6.67,11.6h-30.08l45.29-70.73h27.57l45.29,70.73ZM830.43,108.08l-12.29-21.47-12.31,21.47h24.6Z" fill="#f0f0f0"/>
    <path d="M990.85,137.18h-35.32l-40-47.89v47.89h-29.7v-70.78h35.32l40,47.63v-47.63h29.7v70.78Z" fill="#f0f0f0"/>
    <path d="M1122.88,137.18h-38.59l-30.39-23.67-17.55,11.98v11.69h-29.7v-70.78h29.7v32.73l47.65-32.73h38.88l-50.72,34.62,50.72,36.15Z" fill="#f0f0f0"/>
  </g>
  <path d="M452.54,140.16c-.93-.21-1.78-.77-2.33-1.63-1.1-1.73-.59-4.03,1.14-5.14l106.16-67.63c1.73-1.1,4.03-.59,5.14,1.14,1.1,1.73.59,4.03-1.14,5.14l-106.16,67.63c-.87.55-1.88.7-2.81.49ZM458.96,123.37l106.16-67.63c1.73-1.1,2.24-3.4,1.14-5.14-1.1-1.73-3.4-2.24-5.14-1.14l-106.16,67.63c-1.73,1.1-2.24,3.4-1.14,5.14.55.87,1.4,1.43,2.33,1.63.93.21,1.94.06,2.81-.49ZM462.57,107.08l106.16-67.63c1.73-1.1,2.24-3.4,1.14-5.14-1.1-1.73-3.4-2.24-5.14-1.14l-106.16,67.63c-1.73,1.1-2.24,3.4-1.14,5.14.55.87,1.4,1.43,2.33,1.63.93.21,1.94.06,2.81-.49ZM466.18,90.79l106.16-67.63c1.73-1.1,2.24-3.4,1.14-5.14-1.1-1.73-3.4-2.24-5.14-1.14l-106.16,67.63c-1.73,1.1-2.24,3.4-1.14,5.14.55.87,1.4,1.43,2.33,1.63.93.21,1.94.06,2.8-.49ZM469.79,74.49L575.95,6.86c1.73-1.1,2.24-3.4,1.14-5.14-1.1-1.73-3.4-2.24-5.14-1.14l-106.16,67.63c-1.73,1.1-2.24,3.4-1.14,5.14.55.87,1.4,1.43,2.33,1.63.93.21,1.94.06,2.8-.49ZM471.64,143.28l106.16-67.63c1.73-1.1,2.24-3.4,1.14-5.14-1.1-1.73-3.4-2.24-5.14-1.14l-106.16,67.63c-1.73,1.1-2.24,3.4-1.14,5.14.55.87,1.4,1.43,2.33,1.63.93.21,1.94.06,2.81-.49ZM487.93,146.89l106.16-67.63c1.73-1.1,2.24-3.4,1.14-5.14-1.1-1.73-3.4-2.24-5.14-1.14l-106.16,67.63c-1.73,1.1-2.24,3.4-1.14,5.14.55.87,1.4,1.43,2.33,1.63.93.21,1.94.06,2.81-.49ZM504.23,150.5l106.16-67.63c1.73-1.1,2.24-3.4,1.14-5.14-1.1-1.73-3.4-2.24-5.14-1.14l-106.16,67.63c-1.73,1.1-2.24,3.4-1.14,5.14.55.87,1.4,1.43,2.33,1.63.93.21,1.94.06,2.81-.49ZM520.52,154.11l106.16-67.63c1.73-1.1,2.24-3.4,1.14-5.14-1.1-1.73-3.4-2.24-5.14-1.14l-106.16,67.63c-1.73,1.1-2.24,3.4-1.14,5.14.55.87,1.4,1.43,2.33,1.63.93.21,1.94.06,2.81-.49ZM516.91,170.41l106.16-67.63c1.73-1.1,2.24-3.4,1.14-5.14-1.1-1.73-3.4-2.24-5.14-1.14l-106.16,67.63c-1.73,1.1-2.24,3.4-1.14,5.14.55.87,1.4,1.43,2.33,1.63.93.21,1.94.06,2.81-.49ZM513.29,186.7l106.16-67.63c1.73-1.1,2.24-3.4,1.14-5.14-1.1-1.73-3.4-2.24-5.14-1.14l-106.16,67.63c-1.73,1.1-2.24,3.4-1.14,5.14.55.87,1.4,1.43,2.33,1.63s1.94.06,2.81-.49ZM509.68,202.99l106.16-67.63c1.73-1.1,2.24-3.4,1.14-5.14-1.1-1.73-3.4-2.24-5.14-1.14l-106.16,67.63c-1.73,1.1-2.24,3.4-1.14,5.14.55.87,1.4,1.43,2.33,1.63.93.21,1.94.06,2.81-.49Z" fill="url(#linear-gradient)"/>
</svg>