<?xml version="1.0" encoding="UTF-8"?>
<svg id="Layer_1" xmlns="http://www.w3.org/2000/svg" baseProfile="tiny" version="1.2" viewBox="0 0 264.96 264.96">
  <!-- Generator: Adobe Illustrator 29.5.0, SVG Export Plug-In . SVG Version: 2.1.0 Build 137)  -->
  <rect width="264.96" height="264.96"/>
  <path d="M189.12,156c6.79-4.3,13.46-8.96,20.39-13.09,4.21-1.11,6.65,3.26,3.91,6.37-9.98,6.18-19.69,12.82-29.69,18.96-.35.21-.65.46-1.08.47-.04-.5.02-.99.19-1.47l5.76-10.29c.48-.42.66-.74.53-.96Z" fill="#197ffd"/>
  <path d="M196.8,165.12c.56.17.58.65.08,1.43-2.28,3.87-4.55,7.71-6.8,11.53-6.87,4.4-13.76,8.81-20.64,13.2l-.32-.42c2.02-3.85,4.06-7.7,6.1-11.55l1.18-1.23c6.8-4.32,13.61-8.7,20.4-12.96Z" fill="#197ffd"/>
  <path d="M195.12,146.88l-.32-.42c1.95-3.77,3.91-7.54,5.87-11.31l1.18-1.23c3.22-2.03,6.3-4.46,9.62-6.34,1.36-.77,1.96-1.29,3.68-1.08,3.25.41,4.08,4.7,1.66,6.66-7.17,4.65-14.48,9.11-21.68,13.72Z" fill="#197ffd"/>
  <path d="M174,165.6l.32.42c-2.03,3.85-4.06,7.7-6.09,11.55l-1.19,1.23c-5.51,3.53-11.04,7.04-16.56,10.56l-.32-.42c2.02-3.85,4.06-7.7,6.1-11.55l1.18-1.23c5.48-3.49,11.04-7.05,16.56-10.56Z" fill="#1b86fd"/>
  <path d="M190.08,178.08c-.08-.51.07-.84.28-1.28,1.62-3.47,4.32-6.99,6.09-10.47.2-.39.38-.75.35-1.21,2.77-1.74,5.51-4.17,8.48-5.56,2.52-1.18,5.43-.18,5.69,2.81.15,1.79-.54,2.63-1.84,3.68-5.14,4.14-13.27,8.34-19.04,12.04Z" fill="#187dfd"/>
  <path d="M199.44,121.44c.58-.25.8.07.56.65-2.56,4.04-4.99,8.14-7.28,12.31-5.51,3.52-11.04,7.04-16.56,10.56l-.09-.59c2.06-4.24,4.33-8.36,6.81-12.37,5.52-3.51,11.03-7.06,16.56-10.56Z" fill="#1b86fd"/>
  <path d="M154.32,200.88c-5.52,3.52-11.04,7.04-16.56,10.56l-.32-.42c2.02-3.85,4.06-7.7,6.1-11.55l1.18-1.23c5.37-3.42,10.71-6.9,16.08-10.32.76-.36.72.46.42,1.07-2.49,3.89-4.79,7.86-6.9,11.89Z" fill="#1b86fd"/>
  <path d="M186.72,143.52l.4.42c-2.41,4.27-4.86,8.54-7.36,12.78-5.42,3.46-10.89,6.86-16.32,10.32l-.43-.36c2.3-4.23,4.69-8.44,7.15-12.6,5.5-3.5,11.04-7.05,16.56-10.56Z" fill="#1b86fd"/>
  <path d="M183.36,103.68l-.03.76c-2,4.28-4.58,8.57-7.17,12.44-.4.84-13.65,8.83-15.6,10.08-.5-.33-.54-.83-.11-1.48,2.14-3.71,4.45-7.54,6.66-11.19.11.21.06.03-.07-.29,5.14-3.26,10.98-7.66,16.32-10.32Z" fill="#1e91fc"/>
  <path d="M189.12,156c.9-.25-.03,1.06-.11,1.21-2.13,3.89-4.45,7.53-6.37,11.51-.4.84-13.64,8.83-15.6,10.08l6.96-13.2c5.03-3.2,10.09-6.41,15.12-9.6Z" fill="#1a83fd"/>
  <path d="M176.4,178.08l-6.96,13.2c-5.03,3.21-10.09,6.39-15.12,9.6-.05-.5,0-.91.19-1.37,1.15-2.88,4.24-7.03,5.85-9.99.18-.32.89-1.29.44-1.6,5.19-3.3,10.41-6.54,15.6-9.84Z" fill="#1a83fd"/>
  <path d="M201.84,133.92l-6.72,12.96c-5.12,3.28-10.24,6.57-15.36,9.84-.07-.48.08-.86.26-1.29,1.4-3.22,4.24-7.09,6.02-10.3.28-.51.58-1.02.68-1.6,5.04-3.2,10.08-6.42,15.12-9.6Z" fill="#1a83fd"/>
  <path d="M167.04,114c.83-.19.21.67.09.93-1.59,3.24-3.88,6.52-5.65,9.71-.39.71-.99,1.48-.92,2.32-4.88,3.12-9.76,6.25-14.64,9.36l-.32-.42c2.02-3.85,4.06-7.7,6.1-11.55l1.18-1.23c4.71-2.99,9.42-6.12,14.16-9.12Z" fill="#2097fc"/>
  <path d="M148.08,140.16c.73-.42.87.18.57.85l-4.68,7.99c-.69,1.53-1.56,2.9-2.6,4.11-4.78,3.07-9.62,6.08-14.4,9.12-.53-.21-.56-.69-.08-1.44,2.25-4.03,4.51-7.87,6.8-11.52,4.79-3.06,9.61-6.07,14.4-9.12Z" fill="#2098fc"/>
  <path d="M130.56,118.08c-4.79,3.05-9.61,6.07-14.4,9.12l-.47-.41c2.23-4.3,4.63-8.49,7.19-12.55,4.73-3.01,9.41-6.12,14.16-9.12,1.24-.32.61,1.27.17,2.01-2.07,3.72-4.36,7.41-6.65,10.95Z" fill="#26acfc"/>
  <path d="M111.84,149.28c.2.1.43.23.49.44.27.9-5.9,10.58-7.21,12.52-4.55,2.89-9.13,5.77-13.68,8.64l-.43-.36c2.25-4.12,4.55-8.24,6.91-12.36,4.62-2.96,9.29-5.92,13.92-8.88Z" fill="#26abfc"/>
  <path d="M151.2,96.24c.58.25.38.67.1,1.15-2.46,3.98-4.81,8-7.06,12.05-4.53,2.92-9.14,5.74-13.68,8.64-.01-.7.37-1.26.68-1.84,1.71-3.21,4.41-6.78,5.85-9.99.15-.34.4-.9-.05-1.13,3.97-2.51,10.11-7.25,14.16-8.88Z" fill="#24a5fc"/>
  <path d="M122.64,184.32c.16.11.38.3.32.42-1.55,3.32-3.56,7.27-5.41,10.43-.38.82-.93,1.52-1.64,2.12-1.86,1.16-5.71,4.44-7.79,4.33-3.67-.2-4.76-4.57-1.89-6.93,4.41-3.62,11.43-7.18,16.4-10.36Z" fill="#2098fc"/>
  <path d="M195.6,109.92l.35.51c-2.32,4.29-4.76,8.52-7.31,12.69-4.45,2.84-8.87,5.75-13.44,8.4l-.04-.65c2.23-4.23,4.48-8.33,6.76-12.31,4.56-2.89,9.12-5.82,13.68-8.64Z" fill="#1c8afd"/>
  <path d="M138.48,197.04c-4.45,2.84-8.85,5.79-13.44,8.4l.04-.8c2.01-4.23,4.24-8.28,6.68-12.16,4.39-2.81,8.81-5.6,13.2-8.4.58-.24.8.06.6.64-2.61,4.03-4.97,8.14-7.08,12.32Z" fill="#1d8dfd"/>
  <path d="M164.16,152.64c-4.49,2.86-8.95,5.78-13.44,8.64l-.32-.42c2.02-3.85,4.06-7.7,6.1-11.55l1.18-1.23c4.32-2.76,8.62-5.64,12.96-8.4.66-.27.81.19.54.79-2.55,3.98-4.89,8.04-7.02,12.17Z" fill="#1d8dfd"/>
  <path d="M144.72,198.24l-6.96,13.2c-4.25,2.71-8.48,5.45-12.72,8.16-.93-.19-.19-1.67.13-2.29,2.08-3.34,4.05-6.72,5.91-10.13.2.26.18.16-.05-.29,4.54-2.9,9.14-5.74,13.68-8.64Z" fill="#1c8afd"/>
  <path d="M170.16,154.08c.26.35.09.67-.06,1.01-1.44,3.17-4,6.72-5.74,9.87-.35.64-.86,1.35-.92,2.08-4.24,2.7-8.47,5.45-12.72,8.16-.59-.18-.64-.7-.13-1.56,2.15-3.88,4.35-7.68,6.61-11.4,4.3-2.74,8.66-5.42,12.96-8.16Z" fill="#1c8afd"/>
  <path d="M162.72,47.04c1.09-.22,1.25.35.45,1.72-2.12,3.52-4.19,7.03-6.21,10.52-4.38,2.83-8.81,5.59-13.2,8.4-.53-.21-.56-.69-.08-1.44,2.23-4.03,4.5-7.87,6.8-11.52,3.01-1.9,9.19-6.82,12.24-7.68Z" fill="#27b1fc"/>
  <path d="M124.56,141.12c.57.36.59.94.04,1.74-.39.78-.83,1.55-1.26,2.32-1.7,3.02-3.54,6.08-5.5,8.9-4.24,2.71-8.47,5.46-12.72,8.16.17-1.04.89-2.12,1.4-3.04,1.56-2.81,3.69-5.8,5.04-8.64.21-.44.35-.78.28-1.28,4.23-2.7,8.48-5.45,12.72-8.16Z" fill="#24a6fc"/>
  <path d="M211.92,113.52c.67-.27.81.19.54.79-2.35,4.14-4.77,8.19-7.26,12.17-4.15,2.66-8.33,5.27-12.48,7.92-.08-.51.07-.84.28-1.28,1.56-3.34,4.31-7.52,6.25-10.79.13-.22.71-.75.19-.89,4.16-2.64,8.31-5.34,12.48-7.92Z" fill="#1a82fd"/>
  <path d="M150.72,175.2c-4.25,2.71-8.48,5.45-12.72,8.16l-.32-.42,6.02-11.42,1.26-1.36c4.08-2.6,8.15-5.31,12.24-7.92.56.24.05.71-.09.99-1.74,3.39-4.12,6.67-5.79,10.04-.31.62-.7,1.18-.6,1.92Z" fill="#1d8dfd"/>
  <path d="M182.88,132c.49.23.12.73-.04,1.04-2.05,4-4.92,7.76-6.68,11.92-4,2.55-8,5.13-12,7.68-.05-.5,0-.91.19-1.37,1.22-3.05,4.46-7.51,6.18-10.62.13-.23.58-.84.11-.97,4.06-2.58,8.18-5.1,12.24-7.68Z" fill="#1c8afd"/>
  <path d="M157.44,176.16l-6.96,13.2c-4,2.55-8,5.13-12,7.68-.34-.42-.13-.65.02-1.04,1.24-3.21,4.51-7.78,6.31-10.98.13-.23.65-.78.14-.94,4.15-2.65,8.32-5.28,12.48-7.92Z" fill="#1c8afd"/>
  <path d="M131.04,206.88c.81-.13.46.5.3.9-1.4,3.34-4.6,6.98-5.99,10.33-.2.49-.35.96-.3,1.5-4.2,2.68-8.38,5.5-12.72,7.92l.06-.73c2.23-4.12,4.45-8.2,6.66-12.23,4-2.56,8-5.13,12-7.68Z" fill="#1d8dfd"/>
  <path d="M126.96,162.24c-4.24,2.7-8.29,5.74-12.72,8.16-.23-.72.03-1.32.42-1.93,2.3-3.73,4.48-7.49,6.54-11.27,4.15-2.65,8.33-5.27,12.48-7.92.47.13.01.74-.11.97-1.89,3.42-4.1,6.71-5.93,10.15-.31.58-.69,1.14-.68,1.84Z" fill="#229efc"/>
  <path d="M188.64,123.12c-.08-.51.07-.84.28-1.28,1.48-3.19,4.04-6.65,5.76-9.84.36-.66.75-1.35.92-2.08,1.33-.82,3.39-2.73,4.87-3.17,4.31-1.29,6.84,3.75,3.61,6.49-3.8,3.23-10.98,7.04-15.44,9.88Z" fill="#1b86fd"/>
  <path d="M107.52,76.8c-3.91,2.49-7.85,4.95-11.76,7.44-.24-.02-.43-.14-.49-.37-.28-1.12,5.82-10.6,7.21-12.59,3.98-2.54,8-5.13,12-7.68.16.11.38.3.32.42-1.62,3.39-3.7,7.45-5.62,10.67-.49.82-.89,1.47-1.66,2.11Z" fill="#31cffb"/>
  <path d="M160.08,63.12l.32.42-5.62,10.62-1.18,1.2c-3.99,2.58-8,5.12-12,7.68l-.32-.42c1.95-3.77,3.91-7.54,5.87-11.31l1.18-1.23c3.03-1.91,6.62-4.89,9.76-6.44.71-.35,1.19-.51,2-.52Z" fill="#26acfc"/>
  <path d="M134.4,176.88c.73-.39.89.24.55.88l-4.44,7.54c-.69,1.59-1.56,3.02-2.59,4.3-.26.71-10.51,6.75-12,7.68l6.72-12.96c3.9-2.5,7.87-4.95,11.76-7.44Z" fill="#1f94fc"/>
  <path d="M79.68,113.76l.32.42c-2.02,3.85-4.06,7.7-6.1,11.55l-1.18,1.23c-3.92,2.48-7.82,4.99-11.76,7.44-.62-.43-.55-1.17.2-2.22,2.01-3.21,3.89-6.46,5.66-9.75l.86-.99c3.97-2.55,8-5.13,12-7.68Z" fill="#32d4fb"/>
  <path d="M125.04,205.44c-.36.74-10.44,6.7-12,7.68-.18-.79,0-1.58.57-2.36l6.15-10.6c3.96-2.54,8-5.13,12-7.68.47.25-.2,1.16-.36,1.44-2.13,3.89-4.44,7.54-6.36,11.52Z" fill="#1e91fc"/>
  <path d="M175.2,131.52l-.39.44-11.37,7.24c-.16-.11-.38-.3-.32-.42,1.72-3.51,4.02-8.12,6.09-11.37.4-.62.9-1.13,1.43-1.65,3.76-2.39,7.51-4.81,11.28-7.2.52.49-.33,1.67-.59,2.17-1.92,3.65-4.35,7.06-6.13,10.79Z" fill="#1d8dfd"/>
  <path d="M205.2,126.48c-.01-.7.38-1.26.68-1.84,1.79-3.42,4.06-6.76,5.93-10.15.13-.23.58-.83.11-.97,1.53-.95,3.84-3.2,5.64-3.36,3.92-.35,5.72,4.19,2.84,6.69-5,3.31-10.15,6.4-15.2,9.64Z" fill="#1980fd"/>
  <path d="M126.72,125.76c.92-.09.92.6,0,2.07-1.97,3.26-3.88,6.54-5.75,9.85l-.96,1.04c-3.9,2.48-7.66,5.32-11.76,7.44-.03-.5.03-.99.2-1.47l6.52-11.49c3.91-2.49,7.85-4.95,11.76-7.44Z" fill="#26aafc"/>
  <path d="M138.48,118.32c.8-.26.86.35.53.99l-5.99,10.74-1.02.98c-.41.84-10.38,6.65-12,7.68,1.7-4.14,4.74-7.92,6.69-11.91.15-.3.5-.84.03-1.05,3.91-2.49,7.85-4.96,11.76-7.44Z" fill="#24a5fc"/>
  <path d="M138.24,90.48c.84-.44.67.62.29,1.22-2.26,4.01-4.59,7.92-7.01,11.74-3.85,2.46-7.67,4.98-11.52,7.44-.63-.3-.59-.99.11-2.07,2.13-3.66,4.25-7.29,6.37-10.89,3.91-2.48,7.86-4.97,11.76-7.44Z" fill="#27b0fc"/>
  <path d="M126.24,56.16c.19.92-.07,1.86-.78,2.83-2.1,3.47-4.16,6.92-6.18,10.37-3.91,2.49-7.85,4.95-11.76,7.44l6.96-13.2c3.91-2.49,7.85-4.95,11.76-7.44Z" fill="#2ec8fb"/>
  <path d="M97.92,158.16c.49.22.11.74-.03,1.05-1.41,3.12-3.83,6.51-5.53,9.59-.35.64-.86,1.35-.92,2.08-2.71,1.71-8.49,6.29-11.28,6.96-.5-.2-.52-.63-.08-1.29,2.05-3.53,4.54-7.63,6.51-10.74l-.19-.45c3.81-2.45,7.71-4.76,11.52-7.2Z" fill="#28b1fc"/>
  <path d="M170.64,125.76l-7.2,13.44c-3.72,2.37-7.45,4.83-11.28,6.96l.02-.95,6.7-12.01c3.91-2.49,7.85-4.95,11.76-7.44Z" fill="#1e91fc"/>
  <path d="M105.12,111.6c.19.85-.03,1.71-.67,2.59-2.03,3.48-4.05,6.94-6.05,10.37-3.85,2.45-7.67,4.99-11.52,7.44-.58-.27-.54-.89.15-1.87,2.27-3.77,4.47-7.54,6.57-11.33,3.81-2.43,7.74-4.8,11.52-7.2Z" fill="#2cc0fb"/>
  <path d="M148.08,42.24c.81-.28.72.5.41,1.08-2.27,4.06-4.65,8.02-7.13,11.88-3.66,2.34-7.39,4.63-11.04,6.96l-.08-.63c1.97-4.41,4.24-8.52,6.8-12.33,3.67-2.33,7.38-4.64,11.04-6.96Z" fill="#2bbdfb"/>
  <path d="M106.08,138.96l.32.42c-2.03,3.85-4.06,7.7-6.09,11.55l-1.19,1.23c-3.66,2.35-7.38,4.62-11.04,6.96-.16-.11-.38-.3-.32-.42,1.36-2.95,3.11-6.16,4.69-9.04.54-1.35,1.33-2.52,2.36-3.5,3.74-2.39,7.53-4.81,11.28-7.2Z" fill="#28b3fc"/>
  <path d="M130.32,62.16c-3.69,2.36-7.34,4.84-11.04,7.2-.08-.51.07-.84.28-1.28,1.85-3.96,5.09-7.77,6.68-11.92,3.59-2.29,7.19-4.67,10.8-6.96.47.13.01.74-.11.97-2.2,3.99-4.86,7.81-6.61,11.99Z" fill="#2dc3fb"/>
  <path d="M122.88,114.24c.47.25-.2,1.16-.36,1.44-1.91,3.48-4.15,6.82-5.99,10.33-.21.39-.44.68-.38,1.18-3.65,2.33-7.19,4.97-11.04,6.96l-.45-.27c2.09-3.88,4.24-7.76,6.46-11.66l1.19-1.28c3.48-2.21,7.05-4.49,10.56-6.72Z" fill="#28b2fc"/>
  <path d="M126.48,97.92c.49.23.12.73-.04,1.04-1.79,3.48-4.46,6.99-6.09,10.47-.23.49-.43.89-.35,1.45-3.61,2.3-7.37,4.62-11.04,6.96-.53-.21-.56-.69-.08-1.44,2.25-3.77,4.47-7.54,6.68-11.31.15.38.11.31-.11-.2,3.67-2.33,7.37-4.63,11.04-6.96Z" fill="#29b6fb"/>
  <path d="M81.12,140.88c.69-.24.84.18.62.81-2.09,4.09-4.52,8.13-7.1,11.91-3.57,2.27-7.19,4.67-10.8,6.96l-.32-.42c1.95-3.77,3.91-7.54,5.87-11.31l1.18-1.23c3.51-2.24,7.08-4.5,10.56-6.72Z" fill="#2ec5fb"/>
  <path d="M115.44,104.88c.74-.09.49.2.29.65-1.44,3.33-4.34,7.12-6.1,10.46-.3.58-.69,1.14-.68,1.84-3.52,2.24-7.04,4.48-10.56,6.72-.1-.75.29-1.3.6-1.92,1.87-3.75,4.57-7.13,6.12-11.04,3.44-2.19,6.86-4.52,10.32-6.72Z" fill="#2abafb"/>
  <path d="M152.16,146.16c-.71,1.14-9.03,5.82-10.8,6.96,1.72-4.19,4.56-7.93,6.63-11.97.14-.28.65-.75.09-.99,3.61-2.3,7.19-4.66,10.8-6.96.42.38-.38,1.53-.59,1.93-1.85,3.42-4.12,7.82-6.13,11.03Z" fill="#1f94fc"/>
  <path d="M112.32,227.52c-.38.65-9.32,6.21-10.32,6.48l-.49-.44c2.01-4.13,4.26-8.14,6.73-12.04,3.58-2.3,7.2-4.65,10.8-6.96.5.23.11.73-.04,1.04-2,3.95-4.48,8.13-6.68,11.92Z" fill="#1e90fc"/>
  <path d="M148.32,70.08l-6.72,12.96c-3.6,2.31-7.19,4.66-10.8,6.96l-.32-.42c2.02-3.85,4.06-7.7,6.1-11.55l1.18-1.23c3.51-2.23,7.06-4.51,10.56-6.72Z" fill="#28b2fc"/>
  <path d="M96,140.16c-3.56,2.3-7.24,4.44-10.8,6.72l-.49-.44c2.11-4.19,4.43-8.28,6.97-12.28,3.59-2.29,7.19-4.66,10.8-6.96.73.25-.25,2.15-.58,2.77-2.17,3.33-4.14,6.72-5.9,10.19Z" fill="#2bbbfb"/>
  <path d="M138,160.56l.32.42c-3.91,7.54-5.86,11.31-5.86,11.31l-1.18,1.23c-3.52,2.26-7.01,4.5-10.56,6.72l-.43-.36c2.25-4.24,4.63-8.44,7.15-12.6,3.51-2.25,7.05-4.48,10.56-6.72Z" fill="#2097fc"/>
  <path d="M75.84,110.88c-3.53,2.23-7.02,4.51-10.56,6.72-.59-.28-.53-.92.17-1.92,2.16-3.88,4.35-7.56,6.55-11.04,3.51-2.25,7.05-4.47,10.56-6.72.58-.25.8.07.56.65-2.56,4.04-4.99,8.14-7.28,12.31Z" fill="#34d9fa"/>
  <path d="M91.68,134.16c.06.48-.07.87-.26,1.29-1.53,3.36-4.39,6.81-5.94,10.15-.2.44-.36.77-.28,1.28-3.51,2.24-7.04,4.49-10.56,6.72,1.54-4.08,4.68-7.75,6.45-11.67.14-.31.52-.83.03-1.05,3.51-2.24,7.08-4.5,10.56-6.72Z" fill="#2cbffb"/>
  <path d="M102.48,71.28c-.15.86-.73,1.79-1.16,2.56-1.55,2.8-3.55,5.65-4.97,8.47-.31.62-.7,1.18-.6,1.92-3.52,2.24-7.04,4.49-10.56,6.72-.59-.28-.53-.92.17-1.92,2.13-3.76,4.32-7.44,6.55-11.04,3.49-2.23,7.05-4.48,10.56-6.72Z" fill="#32d5fb"/>
  <path d="M86.88,132c-3.42,2.18-6.9,4.3-10.32,6.48-.58-.28-.53-.91.16-1.9,2.14-3.77,4.33-7.46,6.56-11.06,3.44-2.2,6.86-4.52,10.32-6.72.47.21.12.75-.03,1.05-1.79,3.66-4.51,7.25-6.35,10.94-.19.39-.38.75-.35,1.21Z" fill="#2ec5fb"/>
  <path d="M144.96,170.16l-6.96,13.2c-3.32,2.12-6.62,4.39-10.08,6.24,1.52-4.11,4.31-7.81,6.39-11.73.15-.28.64-.76.09-.99,3.51-2.24,7.05-4.48,10.56-6.72Z" fill="#1e90fc"/>
  <path d="M157.68,148.08l-6.96,13.2c-3.33,2.12-6.62,4.33-10.08,6.24v-.75c2.05-4.09,4.21-8.08,6.48-11.97,3.51-2.24,7.08-4.5,10.56-6.72Z" fill="#1e90fc"/>
  <path d="M106.56,175.44c-2.2,1.42-7.74,5.38-9.84,6-.19-.96.07-1.95.79-2.97l5.69-9.75c3.36-2.16,6.72-4.33,10.08-6.48.73-.42.87.18.57.85-2.34,4.24-4.77,8.35-7.29,12.35Z" fill="#24a5fc"/>
  <path d="M134.4,134.88c.92-.09.92.6,0,2.07-1.97,3.26-3.88,6.54-5.75,9.85l-.96,1.03c-3.27,2.1-6.57,4.15-9.84,6.24,1.53-3.88,4.25-7.34,6.12-11.04.31-.62.69-1.18.6-1.92,3.27-2.09,6.56-4.16,9.84-6.24Z" fill="#23a1fc"/>
  <path d="M92.4,91.68c.2.11.44.23.49.44.26,1.02-6.15,10.94-7.45,12.76-3.18,2.02-6.42,3.98-9.6,6-.08-.51.07-.84.28-1.28,1.57-3.37,4.3-7.5,6.25-10.79.13-.22.71-.75.19-.89,3.27-2.09,6.57-4.15,9.84-6.24Z" fill="#32d3fb"/>
  <path d="M89.52,107.52l.32.42-6.02,11.42-1.26,1.36c-3.28,2.08-6.56,4.16-9.84,6.24l6.96-13.2c3.27-2.09,6.58-4.16,9.84-6.24Z" fill="#30cdfb"/>
  <path d="M94.8,146.16l-6.72,12.96c-3.27,2.09-6.56,4.16-9.84,6.24-.17-.89.07-1.79.72-2.69l6-10.27c3.26-2.09,6.61-4.18,9.84-6.24Z" fill="#2ab9fb"/>
  <path d="M135.36,64.32c.67-.27.81.19.54.79-2.37,4.12-4.79,8.18-7.26,12.17-3.27,2.09-6.57,4.15-9.84,6.24l-.06-.63c2.13-4.21,4.39-8.32,6.78-12.33,3.27-2.08,6.58-4.17,9.84-6.24Z" fill="#2bbdfb"/>
  <path d="M119.76,200.16c.48.14,0,.72-.12.96-1.98,4.1-4.86,7.78-6.6,12-2.02,1.27-4.12,3.09-6.31,4.13-1.27.6-1.41.76-2.81.43l.02-.7c1.96-3.58,3.95-7.11,5.98-10.58,3.26-2.11,6.57-4.15,9.84-6.24Z" fill="#1f94fc"/>
  <path d="M70.56,147.6l-6.72,12.96c-3.22,2.04-6.36,4.23-9.6,6.24-.64-.49-.5-1.4.42-2.74,2.06-3.55,4.16-7.03,6.3-10.46,3.18-2.03,6.43-3.97,9.6-6Z" fill="#2fcafb"/>
  <path d="M112.32,120.96c-2.12,4.27-4.64,8.39-7.07,12.5-.15.26-.08.59-.13.7-.34.65-7.82,5.16-9.12,6-.07-.5.02-.9.19-1.37,1.03-2.99,4.31-6.69,5.61-9.75l.68-1.84c3.27-2.08,6.56-4.16,9.84-6.24Z" fill="#29b6fb"/>
  <path d="M121.2,87.36c.16.11.38.3.32.42-1.55,3.31-3.56,7.29-5.41,10.43-.49.82-.87,1.47-1.64,2.12-3.12,1.99-6.23,4.01-9.36,6-1.23.23-.4-1.35,0-2.06,2.2-3.74,4.35-7.38,6.48-10.9,3.18-2.03,6.42-3.98,9.6-6Z" fill="#2bbefb"/>
  <path d="M125.52,70.56c.54.37-.14,1.28-.36,1.68-2.01,3.81-4.6,7.35-6.36,11.28-3.02,1.93-6.13,3.85-9.12,5.76l-.49-.44c2.04-4.24,4.37-8.34,6.97-12.28,3.1-1.97,6.24-4.02,9.36-6Z" fill="#2dc2fb"/>
  <path d="M165.6,101.04c.56-.2.79.02.68.59.04.72-5.13,9.83-6.03,11.05-.31.42-.69.79-1.14,1.07-.48.91-7.91,5.07-9.36,6l-.32-.42c1.95-3.77,3.91-7.54,5.87-11.31l1.18-1.23c3.05-1.93,6-3.93,9.12-5.76Z" fill="#219afc"/>
  <path d="M83.28,83.52c.73-.42.87.18.57.85l-4.69,7.99c-.69,1.53-1.55,2.9-2.59,4.12-3.13,1.98-6.2,4.05-9.36,6-.16-.11-.38-.3-.32-.42,1.65-3.43,3.87-7.96,5.87-11.13.39-.62.89-1.13,1.41-1.65,3.02-1.94,6.11-3.83,9.12-5.76Z" fill="#35dffa"/>
  <path d="M156.48,106.8l-6.72,12.96c-3.12,2-6.23,4.01-9.36,6l-.32-.42c1.95-3.77,3.91-7.54,5.87-11.31l1.17-1.23c3.1-1.97,6.23-4.02,9.36-6Z" fill="#229efc"/>
  <path d="M147.12,154.8c.5.23.11.73-.04,1.04-2.01,3.97-4.49,7.66-6.44,11.68-.36.74-8.02,5.14-9.36,6l6.72-12.96c3.02-1.93,6.13-3.85,9.12-5.76Z" fill="#1f94fc"/>
  <path d="M165.36,31.2c.16.11.38.3.32.42-1.64,3.41-3.81,7.8-5.79,10.98-.44.7-.87,1.23-1.49,1.8-3.02,1.94-6.09,3.83-9.12,5.76l-.32-.42c1.95-3.77,3.91-7.54,5.87-11.31l1.18-1.23c3.1-1.95,6.03-4.38,9.36-6Z" fill="#29b6fb"/>
  <path d="M137.04,141.84c-.36.74-8.02,5.14-9.36,6,1.7-4.14,4.74-7.92,6.69-11.91.15-.3.5-.84.03-1.05,3.12-1.99,6.23-4.01,9.36-6,.81-.28.72.5.41,1.08l-6.05,10.8-1.08,1.09Z" fill="#229dfc"/>
  <path d="M147.6,84.48c.16.11.38.3.32.42-1.46,3.09-3.31,6.46-4.99,9.46-.61,1.26-1.21,2.4-2.29,3.32-3.03,1.94-6.09,3.83-9.12,5.76-.01-.7.38-1.26.68-1.84,1.78-3.4,4.04-6.6,5.84-10,.1-.19.58-1.01.2-1.12,3.1-1.97,6.22-4.03,9.36-6Z" fill="#26acfc"/>
  <path d="M67.68,121.44l-.68,1.84c-1.61,3.26-4.26,6.6-5.76,9.84-.2.44-.36.77-.28,1.28-2.56,1.59-5.58,4.83-8.64,3.36l.17-.82c1.75-3.09,3.6-6.3,5.35-9.26,3.26-2.12,6.58-4.15,9.84-6.24Z" fill="#34dafa"/>
  <path d="M127.44,167.28c.49.23.12.73-.04,1.04-1.7,3.29-3.95,6.57-5.76,9.84-.35.64-.86,1.35-.92,2.08-2.16,1.35-4.54,3.44-6.88,4.52-.72.33-1.17.53-2,.52-.09-.68.03-1.32.42-1.89l6.06-10.35c3.02-1.95,6.09-3.82,9.12-5.76Z" fill="#219afc"/>
  <path d="M108.24,146.16c-.3.6-7.88,5.2-9.12,6l6.96-13.2c2.96-1.89,5.91-3.87,8.88-5.76.42.38-.38,1.53-.59,1.93-2,3.73-4.28,7.27-6.13,11.03Z" fill="#27affc"/>
  <path d="M159.12,113.76c1.99-3.75,4.71-7.83,6.45-11.67.14-.31.52-.83.03-1.05.75-.44,1.49-1.4,2.57-1.63,4.2-.87,6.6,4,3.17,6.77-2.77,2.23-7.94,5.15-11.14,7.1-.35.21-.66.44-1.09.47Z" fill="#2097fc"/>
  <path d="M130.56,81.36l.32.42c-2.02,3.85-4.06,7.7-6.1,11.55l-1.18,1.23c-3.03,1.93-6.09,3.83-9.12,5.76l6.72-12.96c3.11-1.98,6.24-4.02,9.36-6Z" fill="#2ab9fb"/>
  <path d="M70.32,170.4c-1.7,1.07-5.25,3.98-7.1,4.09-.64.04-.72-.17-1.06-.25l-.06-.59c1.87-3.52,3.81-7,5.82-10.45,3.11-2.02,6.24-4,9.36-6,.51-.28.55-.15.66.33.15.65-5.55,10.28-6.49,11.64l-1.13,1.23Z" fill="#2cc0fb"/>
  <path d="M72,104.64c.47.13.01.74-.11.97-1.97,3.56-4.47,7.19-6.26,10.78-.19.39-.38.75-.35,1.21-1.84,1.15-3.88,2.99-5.84,3.88-1.23.56-1.54.5-2.8.2l-.3-.43c2.12-3.66,4.3-7.27,6.54-10.85,3.02-1.96,6.1-3.82,9.12-5.76Z" fill="#35defa"/>
  <path d="M152.88,123.12l-6.96,13.2c-2.93,1.87-5.8,3.88-8.88,5.52,1.92-3.94,4.24-7.64,6.36-11.52.16-.29.82-1.19.36-1.44,3.03-1.93,6.1-3.84,9.12-5.76Z" fill="#219bfc"/>
  <path d="M101.04,86.16c.88-.28.83.49.47,1.14-2.32,3.96-4.63,7.9-6.95,11.82-3.03,1.93-6.09,3.83-9.12,5.76.17-.74.56-1.42.92-2.08,1.74-3.23,4.22-6.61,5.76-9.84.21-.44.35-.78.28-1.28,2.84-1.82,5.77-3.69,8.64-5.52Z" fill="#30cefb"/>
  <path d="M74.16,89.28l-6.96,13.2c-2.03,1.25-4.4,3.49-6.84,3.11-.55-.09-.58-.33-.84-.47l.12-.85c1.63-3.11,3.35-6.11,5.16-8.99,3.09-2.01,6.24-4,9.36-6Z" fill="#37e5fa"/>
  <path d="M91.92,78c.47.25-.2,1.16-.36,1.44-1.88,3.41-4.29,6.85-6.02,10.31-.19.39-.38.75-.35,1.21-2.88,1.83-5.75,3.7-8.64,5.52,1.7-4.2,4.56-7.93,6.63-11.97.14-.28.65-.75.09-.99,2.85-1.82,5.77-3.69,8.64-5.52Z" fill="#34dafa"/>
  <path d="M54.24,166.8c-1.51.94-5.9,4.06-7.34,4.1-.5.01-.64-.22-.82-.26-.07-.4-.04-.8.09-1.18l5.91-10.1c2.93-1.89,5.91-3.86,8.88-5.76.46.31-.26,1.28-.44,1.6-1.76,3.22-4.63,7.11-6.02,10.3-.19.43-.33.81-.26,1.29Z" fill="#31cffb"/>
  <path d="M147.12,112.8l-6.72,12.96c-2.78,1.77-5.45,3.83-8.4,5.28,1.95-4.02,4.4-7.71,6.44-11.68.16-.31.53-.81.04-1.04,2.87-1.82,5.76-3.69,8.64-5.52Z" fill="#23a1fc"/>
  <path d="M176.16,116.88c.12-.24.08-.73.35-1.21,2.24-4.02,4.81-7.86,6.85-11.99.35-.18.58-.55,1.13-.66,3.06-.62,5.09,1.6,4.61,4.61-.27,1.73-2.57,2.82-3.94,3.74-2.9,1.94-5.97,3.82-9,5.52Z" fill="#1d8dfd"/>
  <path d="M155.28,79.68c1.06-.29,1.2.23.41,1.55-2.19,3.79-4.41,7.51-6.65,11.17-2.77,1.79-5.62,3.5-8.4,5.28l6.96-13.2c2.18-1.37,5.29-4.09,7.68-4.8Z" fill="#25a8fc"/>
  <path d="M150.48,54.72c.47.13.01.74-.11.97-1.88,3.4-4.14,6.73-5.93,10.15-.3.58-.69,1.14-.68,1.84-2.73,1.74-5.43,3.54-8.16,5.28-.23-.91,0-1.85.67-2.84,1.98-3.38,3.91-6.75,5.81-10.12,2.79-1.77,5.6-3.52,8.4-5.28Z" fill="#29b6fb"/>
  <path d="M83.28,125.52c.47.25-.2,1.16-.36,1.44-1.87,3.41-4.32,6.89-6.02,10.31-.19.39-.39.75-.35,1.21-2.64,1.68-5.28,3.36-7.92,5.04l-.49-.44c2.04-4.36,4.45-8.54,7.21-12.52,2.63-1.68,5.32-3.38,7.92-5.04Z" fill="#2fcafb"/>
  <path d="M114.24,170.4c-2.48,1.78-5.11,3.38-7.68,5.04-.07-.85.53-1.6.92-2.32,1.81-3.34,3.98-6.51,5.71-9.89.14-.28.65-.75.09-.99,2.63-1.69,5.29-3.36,7.92-5.04.48.21.12.75-.03,1.05-1.92,4.06-5.06,7.99-6.93,12.15Z" fill="#23a1fc"/>
  <path d="M105.12,106.32c-2.64,1.68-5.28,3.36-7.92,5.04-.64-.52-.55-1.39.28-2.62,2.01-3.52,4.07-6.96,6.2-10.34,2.64-1.68,5.28-3.36,7.92-5.04.48.14,0,.72-.12.96-1.78,3.71-4.62,7.31-6.33,10.96-.19.4-.37.61-.03,1.03Z" fill="#2dc2fb"/>
  <path d="M158.4,44.4l6.96-13.2c.39-.19.58-.49,1.19-.61,3.37-.7,5.78,2.88,3.91,5.82-.56.88-2.34,1.84-3.29,2.47-2.86,1.92-5.87,3.65-8.76,5.52Z" fill="#27b0fc"/>
  <path d="M156,37.2l-6.72,12.96c-2.63,1.68-5.28,3.36-7.92,5.04-.07-.5.17-.79.38-1.18,1.84-3.52,4.08-6.85,5.99-10.33.16-.29.82-1.19.36-1.44,2.63-1.66,5.28-3.38,7.92-5.04Z" fill="#2ab9fb"/>
  <path d="M144.24,109.44c-.07-.48.08-.86.26-1.29,1.47-3.37,4.4-7.42,6.26-10.78.2-.36.39-.71.44-1.12.2-.08.29-.38.84-.47,3.37-.53,5.83,2.7,4.01,5.68-.94,1.53-9.66,6.61-11.81,7.99Z" fill="#23a1fc"/>
  <path d="M84.96,152.4c.48.14,0,.72-.12.96-1.95,4.06-4.91,7.8-6.6,12-2.64,1.67-5.26,3.38-7.92,5.04,1.92-4.24,4.82-8.04,6.84-12.24.12-.24.6-.82.12-.96,2.54-1.63,5.14-3.18,7.68-4.8Z" fill="#2bbcfb"/>
  <path d="M108.96,81.12c.67-.27.81.19.54.79-2.36,4.13-4.78,8.19-7.26,12.17-2.58,1.64-5.1,3.4-7.68,5.04-.08-.57.12-.97.35-1.45,1.62-3.46,4.4-6.97,6.11-10.45.15-.3.5-.84.03-1.05,2.6-1.66,5.29-3.36,7.92-5.04Z" fill="#2fcafb"/>
  <path d="M61.68,139.2c1.14-.26.53.99.14,1.66-2.22,3.8-4.43,7.56-6.62,11.3-2.17,1.31-3.87,3.17-6.48,1.92-.17-.49-.16-.98.14-1.41l4.9-8.43c2.63-1.71,5.28-3.35,7.92-5.04Z" fill="#32d5fb"/>
  <path d="M137.76,76.8l-6.96,13.2c-2.39,1.53-4.81,3.03-7.2,4.56l6.96-13.2c2.39-1.52,4.84-3.06,7.2-4.56Z" fill="#29b5fb"/>
  <path d="M97.2,111.36c-2.55,1.62-5.14,3.18-7.68,4.8l-.1-.58c2.06-4.25,4.33-8.37,6.82-12.38,2.48-1.58,4.95-3.21,7.44-4.8.46.31-.26,1.28-.44,1.6-1.67,3.06-4.56,7-5.81,10.03-.19.47-.32.8-.23,1.33Z" fill="#2ec6fb"/>
  <path d="M116.16,76.56c.35.24-.21,1.19-.35,1.45-1.73,3.28-4.32,6.71-5.85,9.99-.2.44-.36.77-.28,1.28-2.46,1.57-4.96,3.22-7.44,4.8-.01-.7.38-1.26.68-1.84,1.79-3.42,4.05-6.76,5.93-10.15.13-.23.58-.84.11-.97,2.36-1.5,4.81-3.04,7.2-4.56Z" fill="#2ec6fb"/>
  <path d="M96.24,103.2c.49.23.12.73-.04,1.04-2.06,4-4.93,7.75-6.68,11.92-2.33,1.48-4.62,3.07-6.96,4.56l6.96-13.2c2.22-1.41,4.48-2.89,6.72-4.32Z" fill="#2fcafb"/>
  <path d="M75.36,130.56c.03.46-.15.82-.35,1.21-1.78,3.48-4.47,6.99-6.09,10.47-.2.44-.36.77-.28,1.28-2.29,1.46-4.52,3.15-6.96,4.32l.03-.78c2-4.12,4.15-8.1,6.45-11.94,2.38-1.52,4.85-3.06,7.2-4.56Z" fill="#30cefb"/>
  <path d="M142.08,60c.47.21.12.75-.03,1.05-1.96,3.99-5.02,7.66-6.45,11.91-2.3,1.47-4.66,2.86-6.96,4.32-.04-.45.15-.82.35-1.21,1.79-3.6,4.29-7.22,6.26-10.78.13-.23.58-.84.11-.97,2.22-1.41,4.48-2.9,6.72-4.32Z" fill="#2ab9fb"/>
  <path d="M103.2,168.72c.48.14,0,.72-.12.96-1.92,4-4.84,7.58-6.36,11.76-4.13,1.21-6.68-3.81-3.2-6.68,2.59-2.14,6.75-4.16,9.68-6.04Z" fill="#25a9fc"/>
  <path d="M86.4,165.36c.69-.1.56.25.35.71-1.41,3.09-3.97,6.61-5.67,9.69-.35.64-.87,1.35-.92,2.08-1.26.3-1.86.33-3-.48-2.24-1.59-2.06-4.56.04-6.2,2.59-2.02,6.35-3.97,9.2-5.8Z" fill="#29b5fb"/>
  <path d="M108.24,221.52c.49.23.12.73-.04,1.04-1.73,3.37-4.34,6.78-5.92,10.16-.2.44-.36.77-.28,1.28-3.76,1.01-6.35-3.77-3.44-6.44,2.23-2.05,6.98-4.29,9.68-6.04Z" fill="#1f94fb"/>
  <path d="M149.04,92.4c-.02-.52.18-.95.39-1.41,1.63-3.54,4.62-7.13,6.15-10.65.2-.46.44-.74-.29-.65,1.71-.51,3.23-.22,4.32,1.32,1.46,2.06.66,3.94-1.12,5.36-2.57,2.05-6.56,4.18-9.44,6.04Z" fill="#24a5fc"/>
  <path d="M68.16,135.12c.56.24.05.71-.09.99-2.03,3.98-4.42,7.69-6.39,11.73-.25.52-5.55,3.76-6.48,4.32-.1-.8.35-1.42.68-2.08,1.67-3.31,4.11-6.53,5.73-9.87.12-.25.49-.86.07-1.01,2.15-1.38,4.33-2.71,6.48-4.08Z" fill="#31d1fb"/>
  <path d="M156.96,59.28c-.27-.35-.09-.67.06-1.01,1.48-3.39,4.58-6.96,6-10.34.17-.39.52-1.02-.3-.9,3.99-1.13,6.47,3.65,3.44,6.44-1.93,1.78-6.75,4.21-9.2,5.8Z" fill="#26abfc"/>
  <path d="M111.84,185.28c-3.68-.02-4.94-4.51-2-6.92,2.29-1.87,5.9-3.67,8.48-5.32.47.25-.2,1.16-.36,1.44-1.98,3.63-4.33,7.06-6.12,10.8Z" fill="#229efc"/>
  <path d="M153.6,75.36l6.48-12.24c2.79-.05,4.73,2.89,3.41,5.45-.95,1.84-7.79,5.44-9.89,6.79Z" fill="#25a7fc"/>
  <path d="M52.08,159.36c.48.14,0,.72-.12.96-1.71,3.55-4.07,6.82-5.88,10.32-2.81-.57-4.05-3.19-2.45-5.69,1.06-1.65,6.53-4.36,8.45-5.59Z" fill="#32d3fb"/>
  <path d="M103.92,217.68c-2.48-.58-3.78-3.01-2.59-5.35.84-1.64,6.74-4.74,8.59-5.93.49.23.12.73-.04,1.04-1.77,3.45-4.11,6.81-5.96,10.24Z" fill="#2098fc"/>
  <path d="M56.64,121.68c-2.44-.58-3.67-3.14-2.36-5.36.92-1.57,6.75-4.72,8.6-5.92l-.11.97-6.13,10.31Z" fill="#37e4fa"/>
  <path d="M62.16,174.24c-2.43-.58-3.57-2.92-2.49-5.25.79-1.71,6.4-4.58,8.25-5.79.47.21.12.75-.03,1.05-1.68,3.42-4.07,6.54-5.73,9.99Z" fill="#2dc5fb"/>
  <path d="M57.84,127.68c.4.45-.44,1.64-.68,2.08-1.48,2.72-3.1,5.45-4.84,8-1.48-.71-2.33-1.95-2.14-3.69.3-2.81,5.47-4.96,7.66-6.39Z" fill="#35dffa"/>
  <path d="M64.8,95.28c.46.31-.26,1.28-.44,1.6-1.53,2.79-3.25,5.49-4.84,8.24-1.97-1.01-2.77-3.08-1.65-5.13.88-1.6,5.27-3.63,6.93-4.71Z" fill="#38e9fa"/>
  <path d="M48.72,154.08c-2.16-1.04-2.82-3.37-1.49-5.45.84-1.31,5.01-3.4,6.53-4.39.48.14,0,.72-.12.96-1.46,3.04-3.57,5.77-4.92,8.88Z" fill="#34dafa"/>
</svg>