<?xml version="1.0" encoding="UTF-8"?>
<svg id="Layer_1" xmlns="http://www.w3.org/2000/svg" baseProfile="tiny" version="1.2" viewBox="0 0 1000 1000">
  <!-- Generator: Adobe Illustrator 29.5.0, SVG Export Plug-In . SVG Version: 2.1.0 Build 137)  -->
  <rect width="1000" height="1000" fill="#0e8eca"/>
  <path d="M573.12,361.62c16.49-3.41,25.23,16.39,11.42,25.9l-400.04,254.85c-13.8,8.67-29.43-7.66-19.14-20.95,135.25-87.4,271.39-174.07,407.76-259.81Z" fill="#efefef"/>
  <path d="M629.3,115.25c12.68-2.02,21.38,12.41,13.68,22.75-135.41,87.84-272.01,174.87-408.89,260.49-16.08,2.57-24.1-16.95-10.66-26.05l400.63-255.17c1.64-.7,3.48-1.74,5.24-2.02Z" fill="#efefef"/>
  <path d="M601.21,238.45c16.4-2.81,23.98,17.32,10.14,26.44l-403.17,256.24c-17.33,4.11-26.18-16.67-11.02-26.41l398.91-254.17c1.54-.91,3.37-1.8,5.14-2.1Z" fill="#efefef"/>
  <path d="M586.71,300.03c16.3-3.43,25.45,16.62,11.42,25.9l-399.47,254.51c-15.44,9.91-30.7-8.56-18.34-21.97l397.67-253.6c2.84-1.14,5.82-4.24,8.73-4.85Z" fill="#efefef"/>
  <path d="M634.71,375.21c15.87-3.29,24.87,15.13,11.96,25.54l-400.59,255.21c-16.07,9.75-31.29-11.49-16.32-23.56l398.92-254.16c1.85-.86,4.08-2.63,6.02-3.04Z" fill="#efefef"/>
  <path d="M614.79,176.84c14.79-2.68,23.49,14.72,12.33,25.01L224.93,458.17c-16.77,8.66-30.84-13.11-15.08-24.14l397.12-253.25c2.56-1.26,4.95-3.42,7.83-3.94Z" fill="#efefef"/>
  <path d="M696.31,388.79c16.05-3.33,24.36,15.7,11.96,25.54l-401.83,255.78c-13.13,7.51-27.17-8.07-18.81-20.62,130.65-85.87,263.93-168.31,395.41-253.14,4.16-1.72,8.96-6.68,13.26-7.57Z" fill="#efefef"/>
  <path d="M350.86,681.75c-5.23-4.91-5.31-14.21-.8-19.64,135.42-87.29,271.38-174.11,407.84-259.72,15.93-3.29,24.25,15.65,11.96,25.54l-401.83,255.78c-5.27,3.35-12.78,2.16-17.18-1.96Z" fill="#efefef"/>
  <path d="M819.5,415.98c15.79-2.9,23.71,14.88,12.32,24.99l-402.19,256.33c-13.91,7.44-26.96-7.44-18.79-20.6,133.71-87.94,270.16-172.38,404.81-259.14,1.19-.72,2.47-1.32,3.85-1.58Z" fill="#efefef"/>
  <path d="M781.48,599.86c11.66-.65,19.38,13.56,12,22.87-133.48,87.89-269.73,172.24-404.27,258.78-14.67,9.26-30.05-10.9-17.24-22.67l403.95-257.28c1.68-.56,3.85-1.59,5.56-1.69Z" fill="#efefef"/>
  <path d="M805.91,477.57c15.98-2.96,23.5,14.62,12.34,25.01l-402.2,256.32c-16.59,8.43-29.67-13-15.08-24.14l397.11-253.25c2.57-1.27,4.93-3.4,7.83-3.94Z" fill="#efefef"/>
  <path d="M805.85,563.09l-400.68,255.57c-17.58,12.55-34.27-10.94-16.88-23.22l400.05-254.85c15.57-7.65,28.49,9.4,17.51,22.49Z" fill="#efefef"/>
</svg>